<?xml version="1.0" encoding="UTF-8" standalone="no"?>
<!-- Created with Inkscape (http://www.inkscape.org/) -->

<svg
   width="94.142738mm"
   height="102.78751mm"
   viewBox="0 0 94.142738 102.78751"
   version="1.1"
   id="svg5"
   inkscape:version="1.1.2 (b8e25be833, 2022-02-05)"
   sodipodi:docname="favicon.svg"
   xmlns:inkscape="http://www.inkscape.org/namespaces/inkscape"
   xmlns:sodipodi="http://sodipodi.sourceforge.net/DTD/sodipodi-0.dtd"
   xmlns="http://www.w3.org/2000/svg"
   xmlns:svg="http://www.w3.org/2000/svg">
  <sodipodi:namedview
     id="namedview7"
     pagecolor="#ffffff"
     bordercolor="#666666"
     borderopacity="1.0"
     inkscape:pageshadow="2"
     inkscape:pageopacity="0.0"
     inkscape:pagecheckerboard="0"
     inkscape:document-units="mm"
     showgrid="false"
     inkscape:zoom="1.0595392"
     inkscape:cx="23.12326"
     inkscape:cy="184.04227"
     inkscape:window-width="1920"
     inkscape:window-height="1027"
     inkscape:window-x="-8"
     inkscape:window-y="-8"
     inkscape:window-maximized="1"
     inkscape:current-layer="layer1" />
  <defs
     id="defs2" />
  <g
     inkscape:label="Layer 1"
     inkscape:groupmode="layer"
     id="layer1"
     transform="translate(-70.077243,-63.266693)">
    <g
       id="g10"
       transform="matrix(0.26458333,0,0,0.26458333,54.497259,56.615936)">
</g>
    <g
       id="g12"
       transform="matrix(0.26458333,0,0,0.26458333,54.497259,56.615936)">
</g>
    <g
       id="g14"
       transform="matrix(0.26458333,0,0,0.26458333,54.497259,56.615936)">
</g>
    <g
       id="g16"
       transform="matrix(0.26458333,0,0,0.26458333,54.497259,56.615936)">
</g>
    <g
       id="g18"
       transform="matrix(0.26458333,0,0,0.26458333,54.497259,56.615936)">
</g>
    <g
       id="g20"
       transform="matrix(0.26458333,0,0,0.26458333,54.497259,56.615936)">
</g>
    <g
       id="g22"
       transform="matrix(0.26458333,0,0,0.26458333,54.497259,56.615936)">
</g>
    <g
       id="g24"
       transform="matrix(0.26458333,0,0,0.26458333,54.497259,56.615936)">
</g>
    <g
       id="g26"
       transform="matrix(0.26458333,0,0,0.26458333,54.497259,56.615936)">
</g>
    <g
       id="g28"
       transform="matrix(0.26458333,0,0,0.26458333,54.497259,56.615936)">
</g>
    <g
       id="g30"
       transform="matrix(0.26458333,0,0,0.26458333,54.497259,56.615936)">
</g>
    <g
       id="g32"
       transform="matrix(0.26458333,0,0,0.26458333,54.497259,56.615936)">
</g>
    <g
       id="g34"
       transform="matrix(0.26458333,0,0,0.26458333,54.497259,56.615936)">
</g>
    <g
       id="g36"
       transform="matrix(0.26458333,0,0,0.26458333,54.497259,56.615936)">
</g>
    <g
       id="g38"
       transform="matrix(0.26458333,0,0,0.26458333,54.497259,56.615936)">
</g>
    <g
       id="g8353">
      <path
         id="XMLID_1_"
         d="m 99.864562,73.20603 c -1.315243,0 -2.38125,1.066007 -2.38125,2.38125 v 2.266157 c 0,1.315243 1.066007,2.38125 2.38125,2.38125 1.315248,0 2.381248,-1.066007 2.381248,-2.38125 V 75.58728 c 0,-1.315243 -1.066,-2.38125 -2.381248,-2.38125 z m 30.363848,31.94394 c 0.58261,0.82392 0.58261,1.92564 0,2.74982 l -11.03736,15.60936 c -0.44635,0.63103 -1.17131,1.00647 -1.94443,1.00647 -0.77284,0 -1.49807,-0.37518 -1.94415,-1.00647 l -11.03789,-15.60936 c -0.58261,-0.82391 -0.58261,-1.92564 0,-2.74982 l 11.03789,-15.609359 c 0.44635,-0.631031 1.17131,-1.006475 1.94415,-1.006475 0.77312,0 1.49808,0.37518 1.94443,1.006475 z m -4.86066,1.37478 -8.12113,-11.485039 -8.12112,11.485039 8.12112,11.48477 z M 87.614619,66.978533 c 0,-2.046817 1.665023,-3.71184 3.711575,-3.71184 h 51.841126 c 2.04682,0 3.71211,1.665023 3.71211,3.71184 -0.43291,34.397147 0,53.630117 0,79.092167 0,2.04681 -1.66529,3.7121 -3.71211,3.7121 H 91.326194 c -2.046552,0 -3.711575,-1.66529 -3.711575,-3.7121 z m 4.7625,78.042037 h 49.739541 v -11.03313 c -2.6e-4,-0.0212 -2.6e-4,-0.0426 0,-0.0638 v -15.8504 c -7.9e-4,-0.0344 -7.9e-4,-0.069 0,-0.10345 V 68.029193 H 92.377119 v 49.941427 c 7.94e-4,0.0344 7.94e-4,0.0691 0,0.10372 v 15.84801 c 2.64e-4,0.0222 2.64e-4,0.0445 0,0.0667 z m 42.251571,-12.20576 c -1.31524,0 -2.38125,1.066 -2.38125,2.38125 v 2.26615 c 0,1.31525 1.06601,2.38125 2.38125,2.38125 1.31525,0 2.38125,-1.066 2.38125,-2.38125 v -2.26615 c 0,-1.31498 -1.066,-2.38125 -2.38125,-2.38125 z"
         style="stroke-width:0.264583"
         sodipodi:nodetypes="ssssssscccsccccsccccccccssccsscccccccccccccccsssssss" />
      <path
         style="fill:#9b59b6;stroke-width:1.17445"
         d="m 70.077243,83.789285 27.568275,81.824985 19.356452,-36.51331 18.62325,36.95324 28.59476,-82.264927 -25.22204,1.2e-5 -12.02446,34.313695 -9.09167,-17.59678 -9.53159,17.45014 L 93.246328,83.496 Z"
         id="path7809"
         sodipodi:nodetypes="ccccccccccc" />
    </g>
  </g>
</svg>
